<svg width="24" height="24" viewBox="0 0 24 24" xmlns="http://www.w3.org/2000/svg">
    <g fill="none" fill-rule="evenodd">
        <path fill="#0E0E0E" d="M-1468-382H452V973h-1920z"/>
        <g transform="translate(-20 -40)">
            <rect stroke="#3E3E3E" fill="#0E0E0E" x=".5" y=".5" width="151" height="366" rx="12"/>
            <g fill="#CFCFCF">
                <path d="M31.984 46c4.114 0 7.734 2.512 9.901 5.637a.635.635 0 0 1 0 .728C39.723 55.525 36.13 58 31.985 58c-4.19 0-7.712-2.467-9.87-5.62a.63.63 0 0 1 .011-.741c2.81-3.76 6.38-5.639 9.858-5.639zm.002 1c-3.131 0-6.344 1.566-8.872 4.699a.494.494 0 0 0-.011.617C25.046 54.944 28.215 57 31.986 57c3.73 0 6.964-2.062 8.91-4.696a.497.497 0 0 0 0-.607C38.947 49.093 35.689 47 31.987 47z"/>
                <path d="M32 48a4 4 0 1 1 0 8 4 4 0 0 1 0-8zm0 1a3 3 0 1 0 0 6 3 3 0 0 0 0-6z"/>
            </g>
        </g>
    </g>
</svg>
